# xmcd CD database file
#
# Track frame offsets:
#	150
#	24561
#	46489
#	69055
#	83877
#	103232
#	126752
#	143414
#	152235
#	166926
#	181749
#	202329
#	220082
#	231108
#	252300
#	281176
#	301251
#
# Disc length: 4312 seconds
#
# Revision: 0
# Processed by: cddbd v1.5.1PL0 Copyright (c) Steve Scherf et al.
# Submitted via: CDex 1.60beta1
#
DISCID=ed10d611
DTITLE=Nish - Euphoride - Four Bangin' Beats Hard Dance Trax -
DYEAR=1900
DGENRE=エレクトロニック (一般)
TTITLE0=Granular Trax
TTITLE1=All Systems Go
TTITLE2=Acidy Overdrive (Burning Metal Remix)
TTITLE3=Dancin' Electric
TTITLE4=No Gravity
TTITLE5=Bliss
TTITLE6=Nachtclubs DJ (Neurotic Remix)
TTITLE7=Final Frontier
TTITLE8=Ghost Stab (Hard Tech Mix)
TTITLE9=Rock Da Box
TTITLE10=I Love Music (Funky Scratch Mix)
TTITLE11=This Program Is Now Interrupted
TTITLE12=68.71%
TTITLE13=Dance With Me
TTITLE14=Welcome Back (2003 Mix)
TTITLE15=Sagittarius
TTITLE16=Euphoria
EXTD=
EXTT0=
EXTT1=
EXTT2=
EXTT3=
EXTT4=
EXTT5=
EXTT6=
EXTT7=
EXTT8=
EXTT9=
EXTT10=
EXTT11=
EXTT12=
EXTT13=
EXTT14=
EXTT15=
EXTT16=
PLAYORDER=
